:SAMPLES-PER-SECOND 30
:FULLY-SPECIFIED
:DEGREES
226
root  -45.4145 36.4134 3.71782 177.97 14.9473 170.232
RightUpLeg  -32.7751 -5.78412 -9.48799
RightLeg  54.0577 8.3522 11.7538
RightFoot  -18.6486 1.20642 20.5409
RightToes  -5.8209e-011 0 -3.6325e-017
Spine  11.487 0.562077 -5.92978
Spine1  15.702 1.53732 -5.26187
HEad  -27.055 -25.1764 14.4526
LeftShoulder1  2.28478 -4.91482 -20.9155
LeftArm  20.8819 -2.0866 -54.986
LeftForeArm  15.6185 -57.7004 -16.5472
LeftHand  -2.14771 -4.51305 25.0763
RightShoulder  0.718201 -0.108266 14.4585
RightArm  -9.42146 0.354482 57.7281
RightForeArm  5.56809 49.8289 12.6485
RightHand  -4.45909 9.67423 -33.7298
LeftUpLeg  -12.121 17.7354 4.32513
LeftLeg  40.8721 2.64023 2.84063
LeftFoot  -23.2059 -1.44747 -15.1846
LeftToes  6.82088e-011 -2.45093e-011 5.71991e-013
227
root  -45.1977 36.6672 3.77166 178.381 19.0924 170.652
RightUpLeg  -32.738 -12.7339 -8.97175
RightLeg  51.4565 10.6146 13.6884
RightFoot  -19.1658 1.64909 25.7292
RightToes  -5.8209e-011 0 -3.6325e-017
Spine  11.826 -1.05797 -8.89267
Spine1  15.5484 -2.4125 0.328549
HEad  -25.6498 -20.2519 10.7571
LeftShoulder1  2.54832 -5.34517 -22.5304
LeftArm  23.162 -8.5375 -61.5917
LeftForeArm  22.2077 -63.1999 -20.8241
LeftHand  -2.66488 -6.02964 26.9549
RightShoulder  0.825283 -0.16935 18.3046
RightArm  -10.849 -11.2374 55.1388
RightForeArm  3.77916 48.3538 12.36
RightHand  -4.01637 9.66606 -30.5512
LeftUpLeg  -10.7384 17.435 4.73958
LeftLeg  38.6919 6.08248 5.5853
LeftFoot  -22.5498 -1.55633 -17.136
LeftToes  6.82088e-011 -2.45093e-011 5.71991e-013
228
root  -44.8732 36.8008 3.61097 178.268 25.9577 170.612
RightUpLeg  -33.4757 -13.836 -9.38797
RightLeg  49.9178 6.34489 7.62694
RightFoot  -17.6414 1.27141 24.7325
RightToes  -5.8209e-011 0 -3.6325e-017
Spine  12.2763 -2.59842 -11.9666
Spine1  14.6427 -6.16657 5.68268
HEad  -24.3323 -12.9017 6.52476
LeftShoulder1  2.11586 -4.243 -20.8863
LeftArm  19.9819 -15.8671 -66.1316
LeftForeArm  35.462 -73.0416 -37.1694
LeftHand  -2.7466 -5.78447 28.3112
RightShoulder  0.869699 0.206217 16.9666
RightArm  -8.56706 -21.6703 50.5271
RightForeArm  1.06033 49.9507 13.3121
RightHand  -3.48319 8.73282 -28.3936
LeftUpLeg  -8.20457 17.3705 5.07543
LeftLeg  37.231 10.3357 8.71182
LeftFoot  -21.4706 -1.69255 -20.3703
LeftToes  6.82088e-011 -2.45093e-011 5.71991e-013
229
root  -44.4218 36.781 3.32157 176.866 35.6018 170.086
RightUpLeg  -34.8945 -9.69496 -10.6098
RightLeg  50.4443 -2.48683 -3.59593
RightFoot  -15.6675 0.612115 18.9134
RightToes  -5.8209e-011 0 -3.6325e-017
Spine  13.5429 -3.93104 -14.28
Spine1  13.2587 -8.94337 9.08366
HEad  -22.71 -4.69928 2.34546
LeftShoulder1  1.43151 -2.48445 -17.2111
LeftArm  11.9517 -24.4729 -64.6387
LeftForeArm  73.7942 -79.5107 -82.1254
LeftHand  -2.47934 -5.05247 27.3429
RightShoulder  0.928525 1.08114 13.3564
RightArm  -7.73029 -28.2704 45.4233
RightForeArm  -1.40755 50.9598 13.9947
RightHand  -3.25621 8.02513 -27.9565
LeftUpLeg  -3.30751 19.1594 6.17198
LeftLeg  35.8158 12.5637 9.94426
LeftFoot  -20.8251 -1.97133 -24.866
LeftToes  6.82088e-011 -2.45093e-011 5.71991e-013
230
root  -43.8138 36.6709 2.97308 175.106 45.2184 169.063
RightUpLeg  -37.0063 -5.84343 -12.1253
RightLeg  50.9493 -9.05987 -12.0849
RightFoot  -15.0536 0.314053 12.9392
RightToes  -5.8209e-011 0 -3.6325e-017
Spine  15.2038 -5.0942 -15.9305
Spine1  11.2802 -11.1936 11.8426
HEad  -21.1579 3.05575 -1.33038
LeftShoulder1  0.748754 -0.382223 -12.0496
LeftArm  -0.754631 -34.1823 -58.0638
LeftForeArm  105.878 -78.1648 -117.498
LeftHand  -2.14667 -4.48399 25.2
RightShoulder  0.952684 1.73039 11.0491
RightArm  -13.3999 -31.7688 38.8954
RightForeArm  -4.15007 54.4978 16.2964
RightHand  -3.45948 8.48921 -28.655
LeftUpLeg  2.51868 20.3577 7.16985
LeftLeg  33.2359 13.1755 9.49254
LeftFoot  -20.853 -2.29291 -28.4928
LeftToes  6.82088e-011 -2.45093e-011 5.71991e-013
231
root  -42.9577 36.4837 2.62393 173.904 53.3198 167.675
RightUpLeg  -39.6931 -4.81236 -13.0728
RightLeg  49.1727 -10.4541 -13.0469
RightFoot  -14.8865 0.251884 11.4414
RightToes  -5.8209e-011 0 -3.6325e-017
Spine  16.7363 -5.8752 -18.1811
Spine1  8.71701 -13.4333 16.5531
HEad  -20.1624 10.4824 -4.98451
LeftShoulder1  0.165822 2.35598 -6.3506
LeftArm  -17.64 -43.1091 -48.1732
LeftForeArm  113.978 -77.4039 -124.023
LeftHand  -2.23227 -4.16276 26.8908
RightShoulder  0.786789 1.20618 9.33859
RightArm  -24.3686 -32.1681 33.3031
RightForeArm  -6.00237 61.7784 22.4423
RightHand  -3.77587 8.66455 -30.7779
LeftUpLeg  7.49648 19.4875 7.21311
LeftLeg  29.8001 13.5511 8.60852
LeftFoot  -20.7114 -2.44579 -30.6441
LeftToes  6.82088e-011 -2.45093e-011 5.71991e-013
232
root  -41.7287 36.182 2.34241 173.726 60.2683 166.774
RightUpLeg  -42.2549 -4.86717 -12.2947
RightLeg  47.3833 -8.40845 -9.96561
RightFoot  -13.3052 0.143287 13.8242
RightToes  -5.8209e-011 0 -3.6325e-017
Spine  18.2112 -6.26174 -21.7377
Spine1  5.38931 -15.7359 24.41
HEad  -19.4895 18.6129 -9.55377
LeftShoulder1  -0.145066 5.04871 -0.897776
LeftArm  -36.47 -45.4959 -35.1716
LeftForeArm  104.412 -78.9394 -110.653
LeftHand  -2.77457 -4.75836 31.2919
RightShoulder  0.365566 -0.891315 5.99992
RightArm  -35.5713 -29.1536 32.7428
RightForeArm  1.58027 69.9655 34.3283
RightHand  -3.95085 8.64109 -32.1669
LeftUpLeg  11.7236 17.8628 7.28083
LeftLeg  26.3496 13.535 7.5321
LeftFoot  -19.8841 -2.4324 -33.2963
LeftToes  6.82088e-011 -2.45093e-011 5.71991e-013
233
root  -40.1189 35.8668 2.16664 176.227 66.1266 168.251
RightUpLeg  -43.9258 -5.06761 -9.25442
RightLeg  48.0014 -6.46493 -7.95728
RightFoot  -11.973 0.00868832 15.5874
RightToes  -5.8209e-011 0 -3.6325e-017
Spine  19.3478 -6.83717 -25.1545
Spine1  1.53191 -17.9327 33.9911
HEad  -18.5447 27.1143 -14.0102
LeftShoulder1  -0.120719 5.78444 4.14641
LeftArm  -44.9057 -38.3169 -26.1526
LeftForeArm  50.8235 -76.762 -54.3016
LeftHand  -3.07182 -5.10647 33.3865
RightShoulder  -0.0233975 -3.69757 2.11013
RightArm  -41.7982 -25.1215 36.1161
RightForeArm  23.7446 76.2058 55.7075
RightHand  -4.09195 9.2761 -31.8906
LeftUpLeg  15.1319 15.6748 7.90345
LeftLeg  23.4019 14.8643 7.24459
LeftFoot  -17.5912 -1.95042 -36.6388
LeftToes  6.82088e-011 -2.45093e-011 5.71991e-013
234
root  -38.2491 35.634 2.1028 -177.688 70.8577 173.129
RightUpLeg  -44.3407 -6.06269 -4.50891
RightLeg  49.9887 -5.34359 -7.13191
RightFoot  -13.5162 0.169395 14.0673
RightToes  -5.8209e-011 0 -3.6325e-017
Spine  19.6015 -7.78425 -26.938
Spine1  -1.88361 -19.6217 42.3353
HEad  -17.3252 33.829 -16.2916
LeftShoulder1  -0.00995625 3.95941 7.55098
LeftArm  -37.304 -28.8398 -24.1463
LeftForeArm  14.4536 -57.9307 -16.8414
LeftHand  -2.6882 -4.55209 30.9366
RightShoulder  -0.17591 -5.38868 0.760653
RightArm  -43.6319 -23.7114 38.3835
RightForeArm  55.5143 78.5901 85.4313
RightHand  -4.1012 9.44333 -31.6202
LeftUpLeg  17.0919 12.309 8.27391
LeftLeg  22.3404 19.6572 8.98001
LeftFoot  -12.8255 -0.437664 -36.5078
LeftToes  6.82088e-011 -2.45093e-011 5.71991e-013
235
root  -36.2464 35.4124 2.1564 -169.412 75.8224 -179.004
RightUpLeg  -43.3301 -5.9652 0.324078
RightLeg  52.0606 -4.15997 -6.08143
RightFoot  -16.8353 0.429068 11.2878
RightToes  -5.8209e-011 0 -3.6325e-017
Spine  19.3485 -8.05496 -27.6533
Spine1  -3.75382 -20.4202 48.2418
HEad  -17.2385 37.6855 -17.4258
LeftShoulder1  0.0757108 1.25525 6.45213
LeftArm  -25.0347 -22.2811 -24.1232
LeftForeArm  7.37798 -31.2443 -7.59534
LeftHand  -2.39945 -4.73402 27.3516
RightShoulder  -0.244069 -5.65833 3.21654
RightArm  -46.2351 -24.8461 37.9505
RightForeArm  82.3832 77.5697 113.387
RightHand  -3.77114 8.51216 -31.0433
LeftUpLeg  18.1672 10.099 8.66449
LeftLeg  25.0589 23.8078 11.9613
LeftFoot  -6.26251 1.3201 -29.319
LeftToes  6.82088e-011 -2.45093e-011 5.71991e-013
236
root  -34.2547 35.1709 2.33276 -153.003 81.885 -161.489
RightUpLeg  -40.5307 -2.38159 3.74325
RightLeg  53.9732 -3.32735 -5.31438
RightFoot  -19.6905 0.491137 8.55353
RightToes  -5.8209e-011 0 -3.6325e-017
Spine  19.3607 -7.22219 -28.5875
Spine1  -3.579 -20.7266 52.3272
HEad  -19.2099 40.4035 -19.8209
LeftShoulder1  0.382865 -0.635823 -0.891221
LeftArm  -27.6584 -14.3698 -22.5464
LeftForeArm  18.9707 -8.9308 -9.45283
LeftHand  -2.49555 -4.89014 27.9716
RightShoulder  -0.376521 -5.89519 7.97397
RightArm  -52.203 -24.788 38.033
RightForeArm  94.62 74.3948 132.242
RightHand  -3.42952 8.07483 -29.2734
LeftUpLeg  18.7082 11.3656 9.76069
LeftLeg  31.8313 21.9272 14.2908
LeftFoot  -1.10242 1.73796 -18.7945
LeftToes  6.82088e-011 -2.45093e-011 5.71991e-013
